<?xml version="1.0" encoding="UTF-8" standalone="no"?>
<!-- Created with Inkscape (http://www.inkscape.org/) -->

<svg
   width="210mm"
   height="297mm"
   viewBox="0 0 210 297"
   version="1.1"
   id="svg5"
   inkscape:version="1.3.2 (091e20e, 2023-11-25, custom)"
   sodipodi:docname="cat.svg"
   xmlns:inkscape="http://www.inkscape.org/namespaces/inkscape"
   xmlns:sodipodi="http://sodipodi.sourceforge.net/DTD/sodipodi-0.dtd"
   xmlns:xlink="http://www.w3.org/1999/xlink"
   xmlns="http://www.w3.org/2000/svg"
   xmlns:svg="http://www.w3.org/2000/svg">
  <sodipodi:namedview
     id="namedview7"
     pagecolor="#ffffff"
     bordercolor="#999999"
     borderopacity="1"
     inkscape:pageshadow="0"
     inkscape:pageopacity="0"
     inkscape:pagecheckerboard="0"
     inkscape:document-units="mm"
     showgrid="false"
     inkscape:zoom="0.6405233"
     inkscape:cx="397.33137"
     inkscape:cy="422.31094"
     inkscape:window-width="1920"
     inkscape:window-height="1009"
     inkscape:window-x="-8"
     inkscape:window-y="-8"
     inkscape:window-maximized="1"
     inkscape:current-layer="layer3"
     inkscape:showpageshadow="0"
     inkscape:deskcolor="#d1d1d1" />
  <defs
     id="defs2">
    <linearGradient
       id="linearGradient23"
       inkscape:collect="always">
      <stop
         style="stop-color:#bc00ff;stop-opacity:1;"
         offset="0"
         id="stop23" />
      <stop
         style="stop-color:#540065;stop-opacity:1;"
         offset="1"
         id="stop24" />
    </linearGradient>
    <inkscape:path-effect
       effect="spiro"
       id="path-effect22"
       is_visible="true"
       lpeversion="1" />
    <linearGradient
       id="linearGradient21"
       inkscape:collect="always">
      <stop
         style="stop-color:#ff1d00;stop-opacity:1;"
         offset="0"
         id="stop21" />
      <stop
         style="stop-color:#ffbe00;stop-opacity:1;"
         offset="1"
         id="stop22" />
    </linearGradient>
    <linearGradient
       id="linearGradient19"
       inkscape:collect="always">
      <stop
         style="stop-color:#004cff;stop-opacity:1;"
         offset="0"
         id="stop19" />
      <stop
         style="stop-color:#00cfff;stop-opacity:1;"
         offset="1"
         id="stop20" />
    </linearGradient>
    <inkscape:path-effect
       effect="spiro"
       id="path-effect18"
       is_visible="true"
       lpeversion="1" />
    <linearGradient
       id="linearGradient16"
       inkscape:collect="always">
      <stop
         style="stop-color:#3eff3e;stop-opacity:1;"
         offset="0"
         id="stop17" />
      <stop
         style="stop-color:#ffffff;stop-opacity:1;"
         offset="1"
         id="stop18" />
    </linearGradient>
    <inkscape:path-effect
       effect="spiro"
       id="path-effect4"
       is_visible="true"
       lpeversion="1" />
    <marker
       style="overflow:visible"
       id="Arrow1Lstart"
       refX="0.0"
       refY="0.0"
       orient="auto"
       inkscape:stockid="Arrow1Lstart"
       inkscape:isstock="true">
      <path
         transform="scale(0.8) translate(12.5,0)"
         style="fill-rule:evenodd;fill:context-stroke;stroke:context-stroke;stroke-width:1.0pt"
         d="M 0.0,0.0 L 5.0,-5.0 L -12.5,0.0 L 5.0,5.0 L 0.0,0.0 z "
         id="path5126" />
    </marker>
    <marker
       style="overflow:visible"
       id="DotL"
       refX="0.0"
       refY="0.0"
       orient="auto"
       inkscape:stockid="DotL"
       inkscape:isstock="true">
      <path
         transform="scale(0.8) translate(7.4, 1)"
         style="fill-rule:evenodd;fill:context-stroke;stroke:context-stroke;stroke-width:1.0pt"
         d="M -2.5,-1.0 C -2.5,1.7600000 -4.7400000,4.0 -7.5,4.0 C -10.260000,4.0 -12.5,1.7600000 -12.5,-1.0 C -12.5,-3.7600000 -10.260000,-6.0 -7.5,-6.0 C -4.7400000,-6.0 -2.5,-3.7600000 -2.5,-1.0 z "
         id="path5187" />
    </marker>
    <marker
       style="overflow:visible"
       id="SquareL"
       refX="0.0"
       refY="0.0"
       orient="auto"
       inkscape:stockid="SquareL"
       inkscape:isstock="true">
      <path
         transform="scale(0.8)"
         style="fill-rule:evenodd;fill:context-stroke;stroke:context-stroke;stroke-width:1.0pt"
         d="M -5.0,-5.0 L -5.0,5.0 L 5.0,5.0 L 5.0,-5.0 L -5.0,-5.0 z "
         id="path5196" />
    </marker>
    <inkscape:path-effect
       effect="skeletal"
       id="path-effect5054"
       is_visible="true"
       lpeversion="1"
       pattern="M 0,4.9921382 C 0,2.2364779 2.2364779,0 4.9921382,0 c 2.7556604,0 4.9921383,2.2364779 4.9921383,4.9921382 0,2.7556604 -2.2364779,4.9921383 -4.9921383,4.9921383 C 2.2364779,9.9842765 0,7.7477986 0,4.9921382 Z"
       copytype="single_stretched"
       prop_scale="1"
       scale_y_rel="false"
       spacing="0"
       normal_offset="0"
       tang_offset="0"
       prop_units="false"
       vertical_pattern="false"
       hide_knot="false"
       fuse_tolerance="0" />
    <linearGradient
       inkscape:collect="always"
       xlink:href="#linearGradient16"
       id="linearGradient18"
       x1="141.37021"
       y1="70.685104"
       x2="243.01659"
       y2="13.43601"
       gradientUnits="userSpaceOnUse" />
    <linearGradient
       inkscape:collect="always"
       xlink:href="#linearGradient19"
       id="linearGradient20"
       x1="-24.371349"
       y1="135.0751"
       x2="205.71071"
       y2="268.91098"
       gradientUnits="userSpaceOnUse" />
    <linearGradient
       inkscape:collect="always"
       xlink:href="#linearGradient21"
       id="linearGradient22"
       x1="7.022253"
       y1="47.91655"
       x2="213.55911"
       y2="214.38525"
       gradientUnits="userSpaceOnUse"
       gradientTransform="matrix(0.81832797,0,0,0.95737705,19.530683,10.282149)" />
    <linearGradient
       inkscape:collect="always"
       xlink:href="#linearGradient23"
       id="linearGradient24"
       x1="88.750198"
       y1="268.06857"
       x2="-55.351875"
       y2="406.46454"
       gradientUnits="userSpaceOnUse" />
  </defs>
  <g
     inkscape:groupmode="layer"
     id="layer3"
     inkscape:label="Background">
    <rect
       style="fill:url(#linearGradient22);fill-opacity:1;stroke:none;stroke-width:0.234189;stroke-opacity:1"
       id="rect20"
       width="210.25452"
       height="241.23505"
       x="-0.41307247"
       y="5.0915463e-07" />
    <path
       style="fill:url(#linearGradient18);fill-opacity:1;stroke:none;stroke-width:0.265;stroke-dasharray:none;stroke-opacity:1"
       d="m 48.329622,-1.6522948 c 0.01571,10.2509623 0.981981,20.9154728 6.196108,29.7413078 5.058236,8.561962 13.573107,14.471747 22.213,19.395687 8.639894,4.92394 17.769435,9.209659 25.29047,15.715577 10.78096,9.325847 17.42216,22.48047 22.99957,35.598887 5.57742,13.118416 10.4551,26.727636 18.72088,38.341306 9.06571,12.73759 21.9256,22.53169 36.11515,29.09597 14.18956,6.56429 29.68746,10.00036 45.26037,11.38525 37.1973,3.30793 75.34586,-5.17054 107.67251,-23.8673 32.32666,-18.69676 58.68854,-47.51795 74.49384,-81.352463 15.80529,-33.834509 20.99216,-72.52726876 14.71941,-109.340772 -6.27275,-36.813502 -23.96842,-71.588915 -49.98956,-98.374765 -26.02113,-26.78586 -60.25028,-45.47473 -96.83978,-52.944 -36.5895,-7.46927 -75.38552,-3.697 -109.8755,10.62161 -34.48998,14.3186 -64.53762,39.11705 -85.192092,70.22933 -20.654469,31.112286 -31.841599,68.410325 -31.784376,105.7543752 z"
       id="path4"
       inkscape:path-effect="#path-effect4"
       inkscape:original-d="M 48.329622,-1.6522948 C -11.15299,-61.410291 52.46036,18.175243 54.52573,28.089013 c 2.065366,9.913768 31.806673,23.269818 47.50347,35.111264 15.6968,11.841445 27.67594,49.155773 41.72045,73.940193 14.0445,24.78442 54.11265,27.26286 81.37552,40.48122 C 252.38803,190.84005 106.98609,58.105701 48.329622,-1.6522948 Z"
       transform="translate(47.503476,-23.545201)" />
    <path
       sodipodi:type="spiral"
       style="fill:none;fill-rule:evenodd;stroke:#00d1ff;stroke-width:2.965;stroke-linecap:round;stroke-dasharray:8.895, 8.895;stroke-dashoffset:0;stroke-opacity:1"
       id="use53"
       sodipodi:cx="208.18915"
       sodipodi:cy="156.14186"
       sodipodi:expansion="1"
       sodipodi:revolution="5"
       sodipodi:radius="65.994904"
       sodipodi:argument="-30.42098"
       sodipodi:t0="0"
       d="m 208.18915,156.14186 c 1.0811,1.66515 -1.71122,2.27884 -2.7676,1.79687 -2.86272,-1.3061 -2.52727,-5.25734 -0.82614,-7.33206 3.04291,-3.71117 8.74582,-3.00891 11.89652,0.14458 4.62378,4.62788 3.51591,12.28563 -1.1153,16.46099 -6.17268,5.56509 -15.84418,4.03436 -21.02545,-2.08603 -6.5201,-7.70189 -4.55889,-19.41179 3.05675,-25.58991 9.22356,-7.48254 22.98453,-5.08696 30.15438,4.02747 8.44941,10.74104 5.61724,26.56047 -4.9982,34.71884 -12.25594,9.41916 -30.13855,6.14901 -39.28331,-5.96892 -10.39085,-13.76916 -6.68181,-33.71813 6.93965,-43.84777 15.28122,-11.36392 37.2988,-7.21537 48.41223,7.91037 12.33801,16.79245 7.7495,40.8803 -8.88109,52.9767 -18.30305,13.31287 -44.46243,8.28405 -57.54116,-9.85182 -14.28833,-19.81317 -8.81894,-48.04506 10.82254,-62.10562 21.32293,-15.26426 51.62808,-9.3541 66.67009,11.79326 16.24055,22.83239 9.88947,55.21144 -12.76399,71.23455 -24.34161,17.21717 -58.79506,10.42503 -75.79902,-13.73471 -18.19404,-25.85064 -10.96073,-62.3789 14.70544,-80.36348 27.3595,-19.17112 65.96293,-11.496563 84.92794,15.67616 20.14838,28.86824 12.0325,69.54713 -16.64688,89.49241"
       transform="matrix(0.68975981,0,0,0.68975981,-162.41644,2.32856)" />
    <path
       sodipodi:type="spiral"
       style="fill:none;fill-rule:evenodd;stroke:#00d1ff;stroke-width:2.965;stroke-linecap:round;stroke-dasharray:8.895, 8.895;stroke-dashoffset:0;stroke-opacity:1"
       id="use51"
       sodipodi:cx="208.18915"
       sodipodi:cy="156.14186"
       sodipodi:expansion="1"
       sodipodi:revolution="5"
       sodipodi:radius="65.994904"
       sodipodi:argument="-30.42098"
       sodipodi:t0="0"
       d="m 208.18915,156.14186 c 1.0811,1.66515 -1.71122,2.27884 -2.7676,1.79687 -2.86272,-1.3061 -2.52727,-5.25734 -0.82614,-7.33206 3.04291,-3.71117 8.74582,-3.00891 11.89652,0.14458 4.62378,4.62788 3.51591,12.28563 -1.1153,16.46099 -6.17268,5.56509 -15.84418,4.03436 -21.02545,-2.08603 -6.5201,-7.70189 -4.55889,-19.41179 3.05675,-25.58991 9.22356,-7.48254 22.98453,-5.08696 30.15438,4.02747 8.44941,10.74104 5.61724,26.56047 -4.9982,34.71884 -12.25594,9.41916 -30.13855,6.14901 -39.28331,-5.96892 -10.39085,-13.76916 -6.68181,-33.71813 6.93965,-43.84777 15.28122,-11.36392 37.2988,-7.21537 48.41223,7.91037 12.33801,16.79245 7.7495,40.8803 -8.88109,52.9767 -18.30305,13.31287 -44.46243,8.28405 -57.54116,-9.85182 -14.28833,-19.81317 -8.81894,-48.04506 10.82254,-62.10562 21.32293,-15.26426 51.62808,-9.3541 66.67009,11.79326 16.24055,22.83239 9.88947,55.21144 -12.76399,71.23455 -24.34161,17.21717 -58.79506,10.42503 -75.79902,-13.73471 -18.19404,-25.85064 -10.96073,-62.3789 14.70544,-80.36348 27.3595,-19.17112 65.96293,-11.496563 84.92794,15.67616 20.14838,28.86824 12.0325,69.54713 -16.64688,89.49241"
       transform="matrix(0.68975981,0,0,0.68975981,-40.835297,85.605205)" />
    <path
       style="fill:url(#linearGradient20);fill-opacity:1;stroke:none;stroke-width:0.264583;stroke-opacity:1"
       d="M 231.32127,280.89013 C 227.1791,263.57568 218.57985,247.34709 206.57922,234.1967 194.5786,221.04631 179.20227,211.00226 162.33796,205.29763 141.09261,198.11104 117.68052,197.70397 97.485395,187.94853 83.167494,181.03213 71.36867,169.80865 60.968993,157.78012 50.569317,145.75159 41.315862,132.74855 30.567455,121.03059 20.23701,109.76829 8.1543672,99.509094 -6.3525745,94.702217 -13.606045,92.298779 -21.387575,91.326987 -28.9573,92.370357 c -7.569725,1.04337 -14.91241,4.155662 -20.611543,9.245773 -5.766892,5.15063 -9.711916,12.20901 -11.512903,19.72848 -1.800988,7.51947 -1.507591,15.47423 0.406605,22.96568 3.828392,14.98291 13.88197,27.72224 25.563877,37.85521 16.550697,14.3562 36.4703031,24.19658 56.409187,33.27771 19.938883,9.08113 40.282413,17.64 58.425302,29.92257 24.898005,16.85573 44.873725,40.20432 69.809455,57.00418 11.48629,7.73862 24.3309,14.13467 38.12683,15.35665 6.89797,0.61099 13.9561,-0.11039 20.45309,-2.50711 6.497,-2.39672 12.41241,-6.50765 16.59949,-12.02341 4.7924,-6.31317 7.18882,-14.40107 6.60918,-22.30596 z"
       id="path18"
       inkscape:path-effect="#path-effect18"
       inkscape:original-d="m 231.32127,280.89013 c 1.6523,-7.9861 -46.12656,-50.395 -68.98331,-75.5925 -22.85674,-25.1975 -43.23504,-11.42837 -64.852565,-17.3491 C 75.86787,182.02781 52.735741,142.9235 30.567455,121.03059 8.3991653,99.137688 -22.581362,107.94993 -49.568843,101.61613 c -26.987484,-6.333796 9.500693,53.83727 14.457579,80.54937 4.956884,26.7121 76.556324,42.4089 114.834489,63.20028 38.278165,20.79137 46.539635,38.00278 69.809455,57.00418 23.26982,19.00137 50.11961,0.41306 75.17941,0.82613 25.05981,0.41307 4.13074,-15.14602 6.60918,-22.30596 z"
       transform="translate(18.175243,18.175243)" />
    <path
       sodipodi:type="spiral"
       style="fill:none;fill-rule:evenodd;stroke:#ff8100;stroke-width:2.265;stroke-linecap:round;stroke-dasharray:9.06, 9.06;stroke-dashoffset:0;stroke-opacity:1"
       id="path54-9"
       sodipodi:cx="-8.6745481"
       sodipodi:cy="157.79416"
       sodipodi:expansion="1"
       sodipodi:revolution="5"
       sodipodi:radius="35.670532"
       sodipodi:argument="-30.339855"
       sodipodi:t0="0"
       d="m -8.6745481,157.79416 c 0.5094864,0.94441 -1.0216906,1.15272 -1.5696809,0.8468 -1.485019,-0.82902 -1.131234,-2.94297 -0.123919,-3.98616 1.8018497,-1.86603 4.8434005,-1.23791 6.4026415,0.59896 2.2882488,2.69568 1.3559975,6.77259 -1.3218419,8.81912 -3.5691388,2.7277 -8.7123896,1.47944 -11.2356026,-2.04472 -3.175206,-4.4348 -1.605751,-10.65733 2.767603,-13.65208 5.2967181,-3.62705 12.6051915,-1.73375 16.0685637,3.49048 4.0814643,6.15657 1.8627956,14.55487 -4.2133643,18.48504 -7.0151672,4.53754 -16.5057734,1.99256 -20.9015244,-4.93624 -4.994732,-7.87294 -2.122803,-18.45753 5.659125,-23.31801 8.7301484,-5.45272 20.4099002,-2.25341 25.7344859,6.38201 5.9112991,9.58695 2.3842851,22.36274 -7.1048868,28.15097 -10.4434495,6.37031 -24.3159431,2.51536 -30.5674461,-7.82777 -6.829677,-11.29972 -2.646602,-26.26943 8.550648,-32.98393 12.1558118,-7.2893 28.2231414,-2.77797 35.400407,9.27353 7.749152,13.01176 2.909437,30.17704 -9.9964091,37.81689 -13.867597,8.20917 -32.1310889,3.04099 -40.2333689,-10.71929 -8.669343,-14.72334 -3.172614,-34.08527 11.442171,-42.64985 15.5790012,-9.12964 36.03955,-3.3043 45.066329,12.16505 9.590029,16.4346 3.436031,37.99393 -12.8879314,47.48281"
       transform="translate(66.069149,74.59631)" />
    <path
       sodipodi:type="spiral"
       style="fill:none;fill-rule:evenodd;stroke:#ff8100;stroke-width:2.265;stroke-linecap:round;stroke-dasharray:9.06, 9.06;stroke-dashoffset:0;stroke-opacity:1"
       id="path54-9-1-7"
       sodipodi:cx="-8.6745481"
       sodipodi:cy="157.79416"
       sodipodi:expansion="1"
       sodipodi:revolution="5"
       sodipodi:radius="35.670532"
       sodipodi:argument="-30.339855"
       sodipodi:t0="0"
       d="m -8.6745481,157.79416 c 0.5094864,0.94441 -1.0216906,1.15272 -1.5696809,0.8468 -1.485019,-0.82902 -1.131234,-2.94297 -0.123919,-3.98616 1.8018497,-1.86603 4.8434005,-1.23791 6.4026415,0.59896 2.2882488,2.69568 1.3559975,6.77259 -1.3218419,8.81912 -3.5691388,2.7277 -8.7123896,1.47944 -11.2356026,-2.04472 -3.175206,-4.4348 -1.605751,-10.65733 2.767603,-13.65208 5.2967181,-3.62705 12.6051915,-1.73375 16.0685637,3.49048 4.0814643,6.15657 1.8627956,14.55487 -4.2133643,18.48504 -7.0151672,4.53754 -16.5057734,1.99256 -20.9015244,-4.93624 -4.994732,-7.87294 -2.122803,-18.45753 5.659125,-23.31801 8.7301484,-5.45272 20.4099002,-2.25341 25.7344859,6.38201 5.9112991,9.58695 2.3842851,22.36274 -7.1048868,28.15097 -10.4434495,6.37031 -24.3159431,2.51536 -30.5674461,-7.82777 -6.829677,-11.29972 -2.646602,-26.26943 8.550648,-32.98393 12.1558118,-7.2893 28.2231414,-2.77797 35.400407,9.27353 7.749152,13.01176 2.909437,30.17704 -9.9964091,37.81689 -13.867597,8.20917 -32.1310889,3.04099 -40.2333689,-10.71929 -8.669343,-14.72334 -3.172614,-34.08527 11.442171,-42.64985 15.5790012,-9.12964 36.03955,-3.3043 45.066329,12.16505 9.590029,16.4346 3.436031,37.99393 -12.8879314,47.48281"
       transform="translate(238.54237,105.01264)" />
    <path
       style="fill:url(#linearGradient24);fill-opacity:1;stroke:none;stroke-width:0.264999;stroke-dasharray:none;stroke-opacity:1"
       d="m -38.828927,191.25312 c 20.476757,-1.90346 41.802147,-0.2935 60.30876,8.67455 21.658387,10.49536 37.549756,30.00061 57.830317,42.95967 11.932123,7.6245 25.19385,12.86274 38.04807,18.80223 12.85422,5.93949 25.59206,12.78136 35.47905,22.91822 13.87465,14.22531 20.97602,33.78364 24.78442,53.2865 7.48717,38.34187 3.47588,78.86578 -11.46304,114.96266 -14.93892,36.09688 -40.75827,67.6211 -73.252493,89.30709 -32.494219,21.68599 -71.539119,33.43613 -110.604449,33.19881 -39.065329,-0.23731 -77.988554,-12.47353 -110.113558,-34.7028 -32.12501,-22.22926 -57.30683,-54.3666 -71.12674,-90.90653 -13.8199,-36.53993 -16.20478,-77.32539 -6.65404,-115.20598 9.55075,-37.8806 31.0062,-72.68046 60.61748,-98.16238 29.61128,-25.48192 67.247872,-41.51617 106.146223,-45.13204 z"
       id="path22"
       inkscape:path-effect="#path-effect22"
       inkscape:original-d="m -38.828927,191.25312 c -71.048673,-48.32962 40.3435306,6.3338 60.30876,8.67455 19.965227,2.34075 38.553545,28.08901 57.830317,42.95967 19.276774,14.87065 48.88039,27.81363 73.52712,41.72045 24.64673,13.90682 16.66064,35.79971 24.78442,53.2865 8.12378,17.48679 -143.749647,-97.4854 -216.450617,-146.64117 z"
       transform="matrix(0.72437553,0,0,0.68656403,19.008935,67.901438)" />
    <path
       sodipodi:type="spiral"
       style="fill:none;fill-rule:evenodd;stroke:#00d1ff;stroke-width:2.965;stroke-linecap:round;stroke-dasharray:8.895, 8.895;stroke-dashoffset:0;stroke-opacity:1"
       id="use50"
       sodipodi:cx="208.18915"
       sodipodi:cy="156.14186"
       sodipodi:expansion="1"
       sodipodi:revolution="5"
       sodipodi:radius="65.994904"
       sodipodi:argument="-30.42098"
       sodipodi:t0="0"
       d="m 208.18915,156.14186 c 1.0811,1.66515 -1.71122,2.27884 -2.7676,1.79687 -2.86272,-1.3061 -2.52727,-5.25734 -0.82614,-7.33206 3.04291,-3.71117 8.74582,-3.00891 11.89652,0.14458 4.62378,4.62788 3.51591,12.28563 -1.1153,16.46099 -6.17268,5.56509 -15.84418,4.03436 -21.02545,-2.08603 -6.5201,-7.70189 -4.55889,-19.41179 3.05675,-25.58991 9.22356,-7.48254 22.98453,-5.08696 30.15438,4.02747 8.44941,10.74104 5.61724,26.56047 -4.9982,34.71884 -12.25594,9.41916 -30.13855,6.14901 -39.28331,-5.96892 -10.39085,-13.76916 -6.68181,-33.71813 6.93965,-43.84777 15.28122,-11.36392 37.2988,-7.21537 48.41223,7.91037 12.33801,16.79245 7.7495,40.8803 -8.88109,52.9767 -18.30305,13.31287 -44.46243,8.28405 -57.54116,-9.85182 -14.28833,-19.81317 -8.81894,-48.04506 10.82254,-62.10562 21.32293,-15.26426 51.62808,-9.3541 66.67009,11.79326 16.24055,22.83239 9.88947,55.21144 -12.76399,71.23455 -24.34161,17.21717 -58.79506,10.42503 -75.79902,-13.73471 -18.19404,-25.85064 -10.96073,-62.3789 14.70544,-80.36348 27.3595,-19.17112 65.96293,-11.496563 84.92794,15.67616 20.14838,28.86824 12.0325,69.54713 -16.64688,89.49241"
       transform="matrix(0.68975981,0,0,0.68975981,-42.258641,-33.6773)" />
    <path
       sodipodi:type="spiral"
       style="fill:none;fill-rule:evenodd;stroke:#20ff00;stroke-width:2.765;stroke-linecap:round;stroke-linejoin:round;stroke-dasharray:5.53, 5.53;stroke-dashoffset:0;stroke-opacity:1"
       id="path53"
       sodipodi:cx="-6.1961055"
       sodipodi:cy="282.12936"
       sodipodi:expansion="1"
       sodipodi:revolution="5"
       sodipodi:radius="40.727055"
       sodipodi:argument="-32.122353"
       sodipodi:t0="0"
       d="m -6.1961055,282.12936 c 0.9319886,-0.79529 1.5318547,0.86393 1.3218358,1.54903 -0.5691381,1.85657 -3.0137416,1.96881 -4.4198884,1.09465 -2.5152669,-1.56367 -2.5438179,-5.10954 -0.8674549,-7.29075 2.46013,-3.20102 7.2347037,-3.13847 10.16161278172886,-0.64027 C 3.9011092,280.17173 3.7416336,286.21244 0.41307358,289.8745 c -4.18865308,4.60832 -11.51118558,4.34924 -15.90333658,0.18588 -5.319484,-5.04239 -4.959427,-13.65481 0.04131,-18.7742 5.893192,-6.03302 15.8002148,-5.57123 21.645061,0.2685 6.748106,6.74219 6.184114,17.94681 -0.4956882,24.51592 -7.5900152,7.46425 -20.0942358,6.79775 -27.3867858,-0.72288 -8.181138,-8.43701 -7.411937,-22.24227 0.95007,-30.25765 9.283412,-8.89858 24.3907651,-8.02653 33.128509,1.17726 9.616455,10.12938 8.641444,26.53962 -1.40445,35.99938 -10.97499362,10.33465 -28.688737,9.2566 -38.870234,-1.63164 -11.053103,-11.82036 -9.871954,-30.83809 1.858831,-41.7411 12.665498,-11.77177 32.9876154,-10.48747 44.611959,2.08602 12.490596,13.51047 11.103112,35.1373 -2.313213,47.48282 -14.3553094,13.20957 -37.287098,11.71887 -50.353682,-2.5404 -13.928657,-15.20003 -12.334711,-39.43701 2.767593,-53.22455 16.044652,-14.64784 41.587008,-12.95063 56.095407,2.99479"
       transform="translate(-3.3045897,-29.741307)" />
    <path
       sodipodi:type="spiral"
       style="fill:none;fill-rule:evenodd;stroke:#bc00ff;stroke-width:1.765;stroke-linecap:round;stroke-dasharray:7.06, 7.06;stroke-dashoffset:0;stroke-opacity:1"
       id="path55"
       sodipodi:cx="185.05702"
       sodipodi:cy="28.502085"
       sodipodi:expansion="1"
       sodipodi:revolution="5"
       sodipodi:radius="39.553825"
       sodipodi:argument="-31.541576"
       sodipodi:t0="0"
       d="m 185.05702,28.502085 c 1.18052,-0.149118 0.78344,1.517746 0.24785,1.9621 -1.45142,1.20417 -3.49613,-0.0073 -4.17205,-1.466414 -1.20905,-2.609927 0.65725,-5.504223 3.18067,-6.381986 3.70323,-1.288153 7.54663,1.30685 8.59193,4.894927 1.39323,4.782341 -1.95516,9.602134 -6.60918,10.801873 -5.85662,1.509749 -11.66412,-2.602554 -13.01182,-8.323441 -1.63225,-6.92876 3.24938,-13.729783 10.0377,-15.221759 7.9998,-1.758243 15.79776,3.89584 17.4317,11.751954 1.88645,9.070194 -4.54206,17.86728 -13.46621,19.641646 -10.14019,2.016147 -19.93788,-5.188106 -21.85159,-15.180468 -2.14689,-11.209919 5.83404,-22.0092629 16.89473,-24.0615325 12.27946,-2.2784082 24.08123,6.4798735 26.27147,18.6089815 2.4105,13.348871 -7.12564,26.153666 -20.32324,28.481419 C 173.86081,56.552421 160.05253,46.23802 157.58762,31.97189 154.9117,16.484481 166.00467,1.672366 181.33937,-0.92941552 197.89595,-3.7385076 213.7122,8.1332746 216.45062,24.536593 219.39311,42.162296 206.74231,58.982917 189.27036,61.857785 170.57557,64.93386 152.75038,51.503878 149.73922,32.963263 146.5294,13.199424 160.73871,-5.6305066 180.348,-8.7778156 201.18087,-12.121509 221.01567,2.8672352 224.29902,23.54522"
       transform="translate(-15.696801,-33.45897)" />
  </g>
  <g
     inkscape:label="Cat"
     inkscape:groupmode="layer"
     id="layer1">
    <path
       style="fill:#000000;fill-opacity:1;fill-rule:evenodd;stroke-width:8.43591;stroke-linejoin:bevel;paint-order:markers fill stroke"
       id="path1231"
       sodipodi:type="arc"
       sodipodi:cx="34.82053"
       sodipodi:cy="257.0632"
       sodipodi:rx="19.758358"
       sodipodi:ry="24.577887"
       sodipodi:start="0.38282052"
       sodipodi:end="0.38145916"
       sodipodi:open="true"
       sodipodi:arc-type="arc"
       d="m 53.148674,266.24398 a 19.758358,24.577887 0 0 1 -25.702409,13.62116 19.758358,24.577887 0 0 1 -10.958899,-31.9672 19.758358,24.577887 0 0 1 25.69495,-13.64291 19.758358,24.577887 0 0 1 10.976389,31.95791" />
    <path
       style="fill:#000000;fill-opacity:1;fill-rule:evenodd;stroke-width:8.43591;stroke-linejoin:bevel;paint-order:markers fill stroke"
       id="path1280"
       sodipodi:type="arc"
       sodipodi:cx="45.840801"
       sodipodi:cy="265.87341"
       sodipodi:rx="20.860224"
       sodipodi:ry="16.522949"
       sodipodi:start="0.38282052"
       sodipodi:end="0.38145916"
       sodipodi:open="true"
       sodipodi:arc-type="arc"
       d="m 65.191053,272.04537 a 20.860224,16.522949 0 0 1 -27.135758,9.15707 20.860224,16.522949 0 0 1 -11.570045,-21.49055 20.860224,16.522949 0 0 1 27.127883,-9.1717 20.860224,16.522949 0 0 1 11.588509,21.48431" />
    <path
       id="path1608"
       style="fill-rule:evenodd;stroke-width:8.43591;stroke-linejoin:bevel;paint-order:markers fill stroke"
       d="m 43.163259,216.84495 c -1.897723,0.25723 -3.717704,0.9037 -5.480307,1.63133 -1.441102,0.62106 -2.800916,1.40986 -4.168084,2.17383 -0.937603,0.38472 -1.994319,0.442 -2.978563,0.21633 -1.320133,-0.003 -2.409121,1.40632 -2.099609,2.68359 0.193994,2.20177 -0.248008,4.44523 -1.225439,6.42493 -1.110464,2.69121 -2.740259,5.16829 -4.792019,7.23514 -1.369324,1.6043 -2.61253,3.33018 -3.585062,5.20492 -0.417175,0.95345 -0.348468,2.21137 0.458192,2.94341 0.452282,0.43428 1.232479,0.65808 1.765314,0.23611 1.687535,-1.03358 3.241332,-2.31632 5.086623,-3.07019 0.331429,-0.109 0.670509,-0.29643 1.026766,-0.25752 0.629776,0.17032 0.892589,0.83782 1.21589,1.33648 1.682772,2.83266 3.748616,5.52332 6.485639,7.41062 4.800691,3.282 11.376913,3.6584 16.566536,1.07004 3.994024,-1.99644 7.121561,-5.57348 8.754073,-9.71197 1.022572,-2.57056 1.450442,-5.37319 1.229432,-8.1315 -0.19077,-2.76655 -0.977094,-5.43891 -1.577378,-8.13287 -0.398322,-1.99368 -0.600248,-4.01903 -0.914426,-6.02635 -0.499173,-1.0765 -2.029587,-1.41947 -2.984375,-0.75195 -1.065326,0.60143 -2.421739,0.40355 -3.427735,-0.22656 -2.571014,-1.23531 -5.347006,-2.19088 -8.225559,-2.24033 -0.376424,-0.0168 -0.75313,-0.0346 -1.129909,-0.0175 z" />
    <path
       style="fill:none;stroke:#000000;stroke-width:7.77199;stroke-linecap:round;stroke-linejoin:round;stroke-miterlimit:4;stroke-dasharray:none;stroke-dashoffset:0;stroke-opacity:1"
       d="m 26.544322,275.10944 c 7.183594,6.44593 23.024345,6.58607 34.076026,2.3822 11.051683,-4.20387 24.866293,-6.72619 31.681513,-3.22297"
       id="path5124" />
    <path
       style="fill:#000000;fill-opacity:1;fill-rule:evenodd;stroke-width:26.7024;stroke-linecap:round;stroke-linejoin:round;stroke-miterlimit:4;stroke-dasharray:none;stroke-dashoffset:0;paint-order:markers fill stroke"
       id="path5578"
       sodipodi:type="arc"
       sodipodi:cx="45.219166"
       sodipodi:cy="212.03438"
       sodipodi:rx="20.519127"
       sodipodi:ry="20.519127"
       sodipodi:start="0.38282052"
       sodipodi:end="0.38145916"
       sodipodi:open="true"
       sodipodi:arc-type="arc"
       d="m 64.253011,219.69906 a 20.519127,20.519127 0 0 1 -26.692047,11.37177 20.519127,20.519127 0 0 1 -11.380856,-26.68817 20.519127,20.519127 0 0 1 26.6843,-11.38994 20.519127,20.519127 0 0 1 11.399019,26.68042" />
    <path
       style="fill:#000000;fill-opacity:1;stroke:#000000;stroke-width:1.6;stroke-linecap:round;stroke-linejoin:round;stroke-miterlimit:4;stroke-dasharray:none;stroke-opacity:1"
       d="m 28.301563,201.34564 -0.26571,-13.8439 10.960875,7.57767 z"
       id="path6472" />
    <path
       style="fill:#000000;fill-opacity:1;stroke:#000000;stroke-width:1.6;stroke-linecap:round;stroke-linejoin:round;stroke-miterlimit:4;stroke-dasharray:none;stroke-opacity:1"
       d="m 52.54909,195.05164 12.452241,-6.05521 -2.27373,13.12981 z"
       id="path6472-2" />
    <path
       style="fill:#ffff00;stroke:#000000;stroke-width:0.318766px;stroke-linecap:butt;stroke-linejoin:miter;stroke-opacity:1"
       d="m 31.937577,206.43639 c 0,0 3.610511,-3.16405 6.428468,-2.9663 2.817957,0.19775 6.193635,2.93334 6.193635,2.93334 0,0 -3.874692,2.93334 -6.428466,2.90038 -2.553773,-0.033 -6.193637,-2.86742 -6.193637,-2.86742 z"
       id="path7322"
       sodipodi:nodetypes="cscsc" />
    <path
       style="fill:#000000;fill-opacity:1;stroke:#000000;stroke-width:0;stroke-linecap:butt;stroke-linejoin:miter;stroke-miterlimit:4;stroke-dasharray:none;stroke-opacity:1"
       d="m 38.072508,203.60192 c 0,0 -0.867538,1.78394 -0.865758,2.63226 0.0018,0.87224 0.924464,2.89918 0.924464,2.89918 0,0 0.78678,-1.82897 0.791939,-2.97305 0.005,-1.1165 -0.850645,-2.55839 -0.850645,-2.55839 z"
       id="path7995"
       sodipodi:nodetypes="cscsc" />
    <path
       style="fill:#ffff00;stroke:#000000;stroke-width:0.318766px;stroke-linecap:butt;stroke-linejoin:miter;stroke-opacity:1"
       d="m 46.863336,206.61157 c 0,0 3.610511,-3.16405 6.428468,-2.9663 2.817957,0.19776 6.193635,2.93334 6.193635,2.93334 0,0 -3.874692,2.93334 -6.428466,2.90038 -2.553773,-0.033 -6.193637,-2.86742 -6.193637,-2.86742 z"
       id="path7322-7"
       sodipodi:nodetypes="cscsc" />
    <path
       style="fill:#000000;fill-opacity:1;stroke:#000000;stroke-width:0;stroke-linecap:butt;stroke-linejoin:miter;stroke-miterlimit:4;stroke-dasharray:none;stroke-opacity:1"
       d="m 52.998267,203.77711 c 0,0 -0.867538,1.78393 -0.865758,2.63225 0.0018,0.87224 0.924464,2.89918 0.924464,2.89918 0,0 0.78678,-1.82897 0.791939,-2.97304 0.005,-1.11651 -0.850645,-2.55839 -0.850645,-2.55839 z"
       id="path7995-5"
       sodipodi:nodetypes="cscsc" />
    <path
       style="display:none;fill:none;stroke:#ffffff;stroke-width:0.793287;stroke-linecap:round;stroke-linejoin:miter;stroke-miterlimit:4;stroke-dasharray:none;stroke-opacity:1"
       d="m 44.645495,217.24311 v 3.10644 c 0,0 0.207892,1.94152 -1.767063,2.28668 -1.974955,0.34515 -2.234816,-1.68265 -2.234816,-1.68265"
       id="path8799" />
    <path
       style="display:none;fill:none;stroke:#ffffff;stroke-width:0.809985;stroke-linecap:round;stroke-linejoin:miter;stroke-miterlimit:4;stroke-dasharray:none;stroke-opacity:1"
       d="m 44.645495,220.34955 c 0,0 0.452953,2.35347 2.123214,2.25025 1.670261,-0.10322 1.726881,-2.04381 1.726881,-2.04381"
       id="path9560"
       sodipodi:nodetypes="csc" />
    <path
       style="display:none;fill:#ffffff;fill-opacity:1;stroke:#ffffff;stroke-width:0.649467;stroke-linecap:square;stroke-linejoin:round;stroke-miterlimit:4;stroke-dasharray:none;stroke-opacity:1"
       d="m 44.490366,213.9964 -2.897993,3.0222 h 6.039172 z"
       id="path10019" />
  </g>
  <g
     inkscape:groupmode="layer"
     id="layer2"
     inkscape:label="Text">
    <text
       xml:space="preserve"
       style="font-style:normal;font-variant:normal;font-weight:normal;font-stretch:normal;font-size:39.8449px;font-family:Comforter;-inkscape-font-specification:Comforter;fill:#ffffff;fill-opacity:1;stroke:#000000;stroke-width:0.398449;stroke-opacity:1"
       x="15.907162"
       y="57.587452"
       id="text1"><tspan
         sodipodi:role="line"
         id="tspan1"
         style="fill:#ffffff;fill-opacity:1;stroke:#000000;stroke-width:0.398449;stroke-opacity:1"
         x="15.907162"
         y="57.587452">Карнавал</tspan></text>
    <text
       xml:space="preserve"
       style="font-style:normal;font-variant:normal;font-weight:normal;font-stretch:normal;font-size:37.8952px;font-family:Comforter;-inkscape-font-specification:Comforter;fill:#ffffff;fill-opacity:1;stroke:#000000;stroke-width:0.378952;stroke-opacity:1"
       x="71.113258"
       y="117.59482"
       id="text2"><tspan
         sodipodi:role="line"
         style="fill:#ffffff;fill-opacity:1;stroke:#000000;stroke-width:0.378952;stroke-opacity:1"
         x="71.113258"
         y="117.59482"
         id="tspan3">Габрово</tspan></text>
  </g>
</svg>
