<?xml version="1.0" encoding="UTF-8" standalone="no"?>
<!-- Created with Inkscape (http://www.inkscape.org/) -->

<svg
   width="1920"
   height="1080"
   viewBox="0 0 508 285.74999"
   version="1.1"
   id="svg1"
   inkscape:version="1.3.2 (091e20e, 2023-11-25, custom)"
   sodipodi:docname="Logo_Specialty.svg"
   xmlns:inkscape="http://www.inkscape.org/namespaces/inkscape"
   xmlns:sodipodi="http://sodipodi.sourceforge.net/DTD/sodipodi-0.dtd"
   xmlns="http://www.w3.org/2000/svg"
   xmlns:svg="http://www.w3.org/2000/svg">
  <sodipodi:namedview
     id="namedview1"
     pagecolor="#ffffff"
     bordercolor="#111111"
     borderopacity="1"
     inkscape:showpageshadow="0"
     inkscape:pageopacity="0"
     inkscape:pagecheckerboard="1"
     inkscape:deskcolor="#d1d1d1"
     inkscape:document-units="mm"
     inkscape:zoom="0.41792967"
     inkscape:cx="856.60346"
     inkscape:cy="580.24117"
     inkscape:window-width="1920"
     inkscape:window-height="1009"
     inkscape:window-x="-8"
     inkscape:window-y="-8"
     inkscape:window-maximized="1"
     inkscape:current-layer="svg1" />
  <defs
     id="defs1" />
  <g
     inkscape:groupmode="layer"
     id="layer4"
     inkscape:label="Names"
     style="display:inline;opacity:1">
    <text
       xml:space="preserve"
       style="font-style:normal;font-variant:normal;font-weight:normal;font-stretch:normal;font-size:26.4583px;font-family:'Russo One';-inkscape-font-specification:'Russo One';fill:#1a1a1a;stroke-width:0.264583"
       x="278.44196"
       y="339.20132"
       id="text68"><tspan
         sodipodi:role="line"
         id="tspan68"
         style="font-size:26.4583px;fill:#1a1a1a;stroke-width:0.264583"
         x="278.44196"
         y="339.20132">Богомил Иванов</tspan></text>
    <text
       xml:space="preserve"
       style="font-style:normal;font-variant:normal;font-weight:normal;font-stretch:normal;font-size:26.4583px;font-family:'Russo One';-inkscape-font-specification:'Russo One';fill:#1a1a1a;stroke-width:0.264583"
       x="278.88962"
       y="362.47943"
       id="text69"><tspan
         sodipodi:role="line"
         id="tspan69"
         style="stroke-width:0.264583"
         x="278.88962"
         y="362.47943">Спец. СКИ</tspan></text>
    <text
       xml:space="preserve"
       style="font-style:normal;font-variant:normal;font-weight:normal;font-stretch:normal;font-size:26.4583px;font-family:'Russo One';-inkscape-font-specification:'Russo One';fill:#1a1a1a;stroke-width:0.264583"
       x="278.88962"
       y="385.75754"
       id="text70"><tspan
         sodipodi:role="line"
         id="tspan70"
         style="stroke-width:0.264583"
         x="278.88962"
         y="385.75754">Фак. № 22372126</tspan></text>
  </g>
  <g
     inkscape:label="LogoRainbow_Collection"
     inkscape:groupmode="layer"
     id="layer1"
     style="display:none">
    <path
       id="path6"
       style="fill:#ffcc00;stroke-width:0.272252"
       d="m 39.831677,142.84606 a 51.874535,51.874535 0 0 0 -0.0124,0.17415 51.874535,51.874535 0 0 0 51.874353,51.87487 51.874535,51.874535 0 0 0 0.805119,-0.0574 V 155.51454 A 15.160517,15.160517 0 0 1 79.18328,142.84606 Z" />
    <path
       id="path5"
       style="fill:#2ad4ff;stroke-width:0.264583"
       d="m 49.15824,142.53342 a 42.650368,42.650368 0 0 0 42.626855,42.31525 42.650368,42.650368 0 0 0 0.585494,-0.0419 V 155.2019 A 15.160517,15.160517 0 0 1 79.055123,142.53342 Z" />
    <path
       id="path4"
       style="fill:#55d400;stroke-width:0.264583"
       d="m 60.11261,142.55099 a 31.782288,31.782288 0 0 0 31.763952,31.52107 31.782288,31.782288 0 0 0 0.651124,-0.0465 V 155.21947 A 15.160517,15.160517 0 0 1 79.212219,142.55099 Z" />
    <path
       id="path3"
       style="fill:#ff6600;stroke-width:0.264583"
       d="m 71.105737,142.47244 a 20.82288,20.82288 0 0 0 20.770825,20.09231 20.82288,20.82288 0 0 0 0.730705,-0.0522 v -7.37164 A 15.160517,15.160517 0 0 1 79.291801,142.47244 Z" />
    <rect
       style="fill:#ff6600;stroke-width:0.266142"
       id="rect45"
       width="56.532288"
       height="7.4850144"
       x="92.515678"
       y="155.13335" />
    <rect
       style="fill:#ff6600;stroke-width:0.283863"
       id="rect45-9"
       width="8.1931934"
       height="58.752171"
       x="71.105316"
       y="84.270142" />
    <rect
       style="fill:#55d400;stroke-width:0.329486"
       id="rect45-9-1"
       width="11.016467"
       height="58.870129"
       x="60.088562"
       y="84.273972" />
    <rect
       style="fill:#2ad4ff;stroke-width:0.327935"
       id="rect45-9-1-2"
       width="10.929053"
       height="58.78331"
       x="49.168934"
       y="84.274498" />
    <rect
       style="fill:#ffcc00;stroke-width:0.303418"
       id="rect45-9-1-2-1"
       width="9.3559484"
       height="58.78331"
       x="39.814686"
       y="84.267609" />
    <rect
       style="fill:#55d400;stroke-width:0.333767"
       id="rect45-9-1-1"
       width="57.206688"
       height="11.633317"
       x="91.846504"
       y="162.55083" />
    <rect
       style="fill:#2ad4ff;stroke-width:0.320823"
       id="rect45-9-1-1-0"
       width="57.183403"
       height="10.75291"
       x="91.881233"
       y="174.08188" />
    <rect
       style="fill:#ffcc00;stroke-width:0.311317"
       id="rect45-9-1-1-0-7"
       width="57.36742"
       height="10.092703"
       x="91.659348"
       y="184.81464" />
  </g>
  <g
     inkscape:groupmode="layer"
     id="layer3"
     inkscape:label="LogoRainbow">
    <path
       id="path6-0"
       style="fill:#ffcc00;stroke-width:0.423771"
       d="m 48.674242,99.167155 a 81.26281,80.230255 0 0 0 -0.01942,0.26934 81.26281,80.230255 0 0 0 81.262528,80.230785 81.26281,80.230255 0 0 0 1.26124,-0.0887 V 118.76055 A 23.749346,23.447578 0 0 1 110.31957,99.167205 Z" />
    <path
       id="path5-7"
       style="fill:#2ad4ff;stroke-width:0.411834"
       d="m 63.284546,98.683631 a 66.812912,65.963963 0 0 0 66.776094,65.445669 66.812912,65.963963 0 0 0 0.91719,-0.0648 V 118.27698 A 23.749346,23.447578 0 0 1 110.1188,98.683641 Z" />
    <rect
       style="fill:#55d400;stroke-width:0.315764"
       id="rect45-9-1-1-2"
       width="32.837017"
       height="18.139486"
       x="129.97107"
       y="129.49583" />
    <path
       id="path4-8"
       style="fill:#55d400;stroke-width:0.411834"
       d="m 80.444856,98.710801 a 49.787783,49.155161 0 0 0 49.759074,48.751169 49.787783,49.155161 0 0 0 1.02,-0.072 V 118.30413 A 23.749346,23.447578 0 0 1 110.3649,98.710791 Z" />
    <rect
       style="fill:#55d400;stroke-width:0.328667"
       id="rect45-9-1-0"
       width="17.632002"
       height="36.599556"
       x="80.407173"
       y="63.028564" />
    <rect
       style="fill:#ff6600;stroke-width:0.278192"
       id="rect45-9-3"
       width="14.3473"
       height="32.223625"
       x="97.665314"
       y="62.969467" />
    <path
       id="path3-4"
       style="fill:#ff6600;stroke-width:0.460801"
       d="m 97.665872,94.894465 a 36.498061,36.034302 0 0 0 36.406848,34.770045 36.498061,36.034302 0 0 0 1.28074,-0.0903 V 116.81749 A 26.573149,26.235502 0 0 1 112.01431,94.894527 Z" />
    <rect
       style="fill:#ff6600;stroke-width:0.250422"
       id="rect45-2"
       width="28.875366"
       height="12.974431"
       x="133.93402"
       y="116.76842" />
    <rect
       style="fill:#2ad4ff;stroke-width:0.32363"
       id="rect45-9-1-2-11"
       width="17.120647"
       height="36.545582"
       x="63.3013"
       y="63.028908" />
    <rect
       style="fill:#ffcc00;stroke-width:0.299435"
       id="rect45-9-1-2-1-0"
       width="14.656338"
       height="36.545582"
       x="48.647625"
       y="63.024628" />
    <rect
       style="fill:#2ad4ff;stroke-width:0.302285"
       id="rect45-9-1-1-0-6"
       width="32.823658"
       height="16.630678"
       x="129.991"
       y="147.47714" />
    <rect
       style="fill:#ffcc00;stroke-width:0.293329"
       id="rect45-9-1-1-0-7-2"
       width="32.929283"
       height="15.60959"
       x="129.86362"
       y="164.07666" />
  </g>
  <g
     inkscape:groupmode="layer"
     id="layer2"
     inkscape:label="Text">
    <text
       xml:space="preserve"
       style="font-style:normal;font-variant:normal;font-weight:normal;font-stretch:normal;font-size:132.292px;font-family:'Russo One';-inkscape-font-specification:'Russo One';fill:#000000;stroke-width:0.264583"
       x="185.88182"
       y="190.67221"
       id="text1"><tspan
         sodipodi:role="line"
         id="tspan1"
         style="font-style:normal;font-variant:normal;font-weight:normal;font-stretch:normal;font-size:132.292px;font-family:'Russo One';-inkscape-font-specification:'Russo One';stroke-width:0.264583"
         x="185.88182"
         y="190.67221">СКИ</tspan></text>
  </g>
</svg>
