<svg width="19" height="18" viewBox="0 0 19 18" fill="none" xmlns="http://www.w3.org/2000/svg">
<path d="M10.6309 2.63242L11.9509 5.27242C12.1309 5.63992 12.6109 5.99242 13.0159 6.05992L15.4084 6.45742C16.9384 6.71242 17.2984 7.82242 16.1959 8.91742L14.3359 10.7774C14.0209 11.0924 13.8484 11.6999 13.9459 12.1349L14.4784 14.4374C14.8984 16.2599 13.9309 16.9649 12.3184 16.0124L10.0759 14.6849C9.67093 14.4449 9.00343 14.4449 8.59093 14.6849L6.34843 16.0124C4.74343 16.9649 3.76843 16.2524 4.18843 14.4374L4.72093 12.1349C4.81843 11.6999 4.64593 11.0924 4.33093 10.7774L2.47093 8.91742C1.37593 7.82242 1.72843 6.71242 3.25843 6.45742L5.65093 6.05992C6.04843 5.99242 6.52843 5.63992 6.70843 5.27242L8.02843 2.63242C8.74843 1.19992 9.91843 1.19992 10.6309 2.63242Z" fill="#FFCD1A"/>
</svg>
