<?xml version="1.0" encoding="UTF-8" standalone="no"?>
<svg
   width="20"
   height="20"
   viewBox="0 0 20 20"
   fill="none"
   version="1.1"
   id="svg1"
   sodipodi:docname="search.svg"
   inkscape:version="1.3 (0e150ed6c4, 2023-07-21)"
   xmlns:inkscape="http://www.inkscape.org/namespaces/inkscape"
   xmlns:sodipodi="http://sodipodi.sourceforge.net/DTD/sodipodi-0.dtd"
   xmlns="http://www.w3.org/2000/svg"
   xmlns:svg="http://www.w3.org/2000/svg">
  <defs
     id="defs1" />
  <sodipodi:namedview
     id="namedview1"
     pagecolor="#ffffff"
     bordercolor="#000000"
     borderopacity="0.25"
     inkscape:showpageshadow="2"
     inkscape:pageopacity="0.0"
     inkscape:pagecheckerboard="0"
     inkscape:deskcolor="#d1d1d1"
     inkscape:zoom="40.65"
     inkscape:cx="9.9876999"
     inkscape:cy="10"
     inkscape:window-width="1920"
     inkscape:window-height="1009"
     inkscape:window-x="-8"
     inkscape:window-y="-8"
     inkscape:window-maximized="1"
     inkscape:current-layer="svg1" />
  <path
     fill-rule="evenodd"
     clip-rule="evenodd"
     d="M1.875 8.125C1.875 4.67322 4.67322 1.875 8.125 1.875C11.5768 1.875 14.375 4.67322 14.375 8.125C14.375 11.5768 11.5768 14.375 8.125 14.375C4.67322 14.375 1.875 11.5768 1.875 8.125ZM8.125 0C3.63769 0 0 3.63769 0 8.125C0 12.6124 3.63769 16.25 8.125 16.25C10.0309 16.25 11.7835 15.5938 13.1691 14.495L17.4621 18.7879L18.125 19.4509L19.4509 18.125L18.7879 17.4621L14.495 13.1691C15.5938 11.7835 16.25 10.0309 16.25 8.125C16.25 3.63769 12.6124 0 8.125 0Z"
     fill="#AB8BFF"
     id="path1"
     style="fill:#7bf1a8;fill-opacity:1" />
</svg>
